<svg width="0.563rem" height="0.375rem" viewBox="0 0 9 6" fill="none" xmlns="http://www.w3.org/2000/svg">
<path d="M8.5619 0.968143L3.80787 5.72217C3.76646 5.76372 3.71726 5.79669 3.66309 5.81918C3.60891 5.84168 3.55083 5.85326 3.49217 5.85326C3.43351 5.85326 3.37543 5.84168 3.32126 5.81918C3.26708 5.79669 3.21788 5.76372 3.17647 5.72217L1.09659 3.64228C1.05513 3.60083 1.02224 3.55161 0.999805 3.49744C0.977368 3.44327 0.96582 3.38522 0.96582 3.32659C0.96582 3.26796 0.977368 3.2099 0.999805 3.15573C1.02224 3.10156 1.05513 3.05235 1.09659 3.01089C1.13804 2.96943 1.18726 2.93654 1.24143 2.91411C1.2956 2.89167 1.35365 2.88012 1.41228 2.88012C1.47091 2.88012 1.52897 2.89167 1.58314 2.91411C1.63731 2.93654 1.68652 2.96943 1.72798 3.01089L3.49254 4.77545L7.93125 0.337492C8.01497 0.253764 8.12853 0.206726 8.24694 0.206726C8.36535 0.206726 8.47891 0.253764 8.56264 0.337492C8.64637 0.42122 8.69341 0.53478 8.69341 0.653189C8.69341 0.771599 8.64637 0.885158 8.56264 0.968886L8.5619 0.968143Z" fill="white"/>
</svg>
