<svg width="2rem" height="2rem" viewBox="0 0 32 32" fill="none" xmlns="http://www.w3.org/2000/svg">
    <path d="M20.6665 14.6666C21.7711 14.6666 22.6665 13.7712 22.6665 12.6666C22.6665 11.5621 21.7711 10.6666 20.6665 10.6666C19.5619 10.6666 18.6665 11.5621 18.6665 12.6666C18.6665 13.7712 19.5619 14.6666 20.6665 14.6666Z" fill="#5C5C5C" />
    <path d="M11.3335 14.6666C12.4381 14.6666 13.3335 13.7712 13.3335 12.6666C13.3335 11.5621 12.4381 10.6666 11.3335 10.6666C10.2289 10.6666 9.3335 11.5621 9.3335 12.6666C9.3335 13.7712 10.2289 14.6666 11.3335 14.6666Z" fill="#5C5C5C" />
    <path d="M16.0002 24C19.0402 24 21.6268 21.7866 22.6668 18.6666H9.3335C10.3735 21.7866 12.9602 24 16.0002 24Z" fill="#5C5C5C" />
    <path d="M15.9865 2.66663C8.6265 2.66663 2.6665 8.63996 2.6665 16C2.6665 23.36 8.6265 29.3333 15.9865 29.3333C23.3598 29.3333 29.3332 23.36 29.3332 16C29.3332 8.63996 23.3598 2.66663 15.9865 2.66663ZM15.9998 26.6666C10.1065 26.6666 5.33317 21.8933 5.33317 16C5.33317 10.1066 10.1065 5.33329 15.9998 5.33329C21.8932 5.33329 26.6665 10.1066 26.6665 16C26.6665 21.8933 21.8932 26.6666 15.9998 26.6666Z" fill="#5C5C5C" />
</svg>