<svg width="1.5rem" height="1.5rem" viewBox="0 0 24 24" fill="none" xmlns="http://www.w3.org/2000/svg">
<g clip-path="url(#clip0_411_161)">
<path d="M6.88154 12.2191C3.45325 10.9005 1.7391 10.2412 1.30796 9.35595C0.935078 8.59028 0.977616 7.68746 1.42084 6.96024C1.93331 6.11943 3.70185 5.62424 7.23894 4.63385L17.234 1.83523C19.4734 1.2082 20.5931 0.894684 21.3615 1.18568C22.0314 1.43939 22.5603 1.96829 22.814 2.63819C23.1049 3.40654 22.7914 4.52624 22.1644 6.76565L19.3657 16.7606C18.3753 20.2977 17.88 22.0663 17.0392 22.5788C16.312 23.022 15.4092 23.0645 14.6435 22.6916C13.7582 22.2605 13.099 20.5463 11.7804 17.1179L11.0877 15.3166C10.9525 14.9653 10.885 14.7897 10.8813 14.6151C10.878 14.4608 10.9104 14.3078 10.9761 14.1681C11.0504 14.0101 11.1835 13.877 11.4496 13.6109L13.9999 11.0606C14.2928 10.7677 14.2928 10.2928 13.9999 9.99995C13.7071 9.70705 13.2322 9.70705 12.9393 9.99995L10.3891 12.5501C10.123 12.8163 9.98991 12.9493 9.83189 13.0236C9.69221 13.0893 9.53921 13.1218 9.38489 13.1185C9.2103 13.1148 9.03466 13.0472 8.68338 12.9121L6.88154 12.2191Z" fill="#4E4648"/>
</g>
<defs>
<clipPath id="clip0_411_161">
<rect width="24" height="24" fill="white"/>
</clipPath>
</defs>
</svg>
