<svg width="46" height="46" viewBox="0 0 46 46" fill="none" xmlns="http://www.w3.org/2000/svg">
<g filter="url(#filter0_d_112_686)">
<circle cx="17.5" cy="17.5" r="15.5" fill="url(#paint0_linear_112_686)"/>
<circle cx="17.4442" cy="17.5368" r="12.347" fill="url(#paint1_linear_112_686)"/>
<mask id="mask0_112_686" style="mask-type:alpha" maskUnits="userSpaceOnUse" x="7" y="8" width="22" height="22">
<circle cx="17.9966" cy="18.614" r="10.6021" fill="#7D7D7D"/>
</mask>
<g mask="url(#mask0_112_686)">
<circle cx="17.4321" cy="17.4847" r="10.6021" fill="#9CA1A3"/>
</g>
<path d="M17.4441 30.8615C24.8784 30.8615 30.938 24.8761 30.938 17.4521C30.938 10.0282 24.8784 4.04279 17.4441 4.04279C10.0099 4.04279 3.9502 10.0282 3.9502 17.4521C3.9502 24.8761 10.0099 30.8615 17.4441 30.8615Z" fill="#616161" stroke="#9F9F9F" stroke-width="5"/>
<mask id="mask1_112_686" style="mask-type:alpha" maskUnits="userSpaceOnUse" x="7" y="7" width="23" height="23">
<circle cx="18.0435" cy="18.5474" r="10.9981" fill="#C28B37"/>
</mask>
<g mask="url(#mask1_112_686)">
<circle cx="17.458" cy="17.376" r="10.9981" fill="url(#paint2_linear_112_686)"/>
</g>
<path d="M17.6481 9.38367L20.1288 14.345L25.0901 14.9652L21.6833 18.7854L22.6095 24.2677L17.6481 21.7871L12.6867 24.2677L13.6211 18.7854L10.2061 14.9652L15.1674 14.345L17.6481 9.38367Z" fill="url(#paint3_linear_112_686)"/>
<path d="M18.5425 8.93645L17.6481 7.1476L16.7537 8.93645L14.5123 13.4191L10.082 13.9729L8.18921 14.2095L9.46052 15.6317L12.5544 19.0926L11.701 24.0997L11.3695 26.0444L13.1339 25.1622L17.6481 22.9051L22.1622 25.1622L23.9235 26.0428L23.5955 24.1012L22.7494 19.0925L25.8365 15.6308L27.1042 14.2092L25.2142 13.9729L20.7839 13.4191L18.5425 8.93645Z" stroke="#353535" stroke-opacity="0.2" stroke-width="2"/>
</g>
<defs>
<filter id="filter0_d_112_686" x="0.666698" y="0.759288" width="44.5238" height="44.3547" filterUnits="userSpaceOnUse" color-interpolation-filters="sRGB">
<feFlood flood-opacity="0" result="BackgroundImageFix"/>
<feColorMatrix in="SourceAlpha" type="matrix" values="0 0 0 0 0 0 0 0 0 0 0 0 0 0 0 0 0 0 127 0" result="hardAlpha"/>
<feOffset dx="5.48449" dy="5.48449"/>
<feGaussianBlur stdDeviation="3.13399"/>
<feComposite in2="hardAlpha" operator="out"/>
<feColorMatrix type="matrix" values="0 0 0 0 0 0 0 0 0 0 0 0 0 0 0 0 0 0 0.3 0"/>
<feBlend mode="normal" in2="BackgroundImageFix" result="effect1_dropShadow_112_686"/>
<feBlend mode="normal" in="SourceGraphic" in2="effect1_dropShadow_112_686" result="shape"/>
</filter>
<linearGradient id="paint0_linear_112_686" x1="17.5" y1="2" x2="17.5" y2="33" gradientUnits="userSpaceOnUse">
<stop stop-color="white"/>
<stop offset="1" stop-color="#B1B1B1"/>
</linearGradient>
<linearGradient id="paint1_linear_112_686" x1="17.4442" y1="5.18973" x2="17.4442" y2="29.8838" gradientUnits="userSpaceOnUse">
<stop stop-color="#898989"/>
<stop offset="1" stop-color="#5F5F5F"/>
</linearGradient>
<linearGradient id="paint2_linear_112_686" x1="17.458" y1="6.3779" x2="17.458" y2="28.374" gradientUnits="userSpaceOnUse">
<stop stop-color="#7D7D7D"/>
<stop offset="1" stop-color="#474747"/>
</linearGradient>
<linearGradient id="paint3_linear_112_686" x1="17.6481" y1="14.1664" x2="17.6481" y2="23.6343" gradientUnits="userSpaceOnUse">
<stop stop-color="white"/>
<stop offset="1" stop-color="#DDE1E1"/>
</linearGradient>
</defs>
</svg>
