<svg width="24" height="24" viewBox="0 0 24 24" fill="none" xmlns="http://www.w3.org/2000/svg">
<path d="M11.9999 1.25C8.27196 1.25 5.24988 4.27207 5.24988 8V10.0692C5.24988 10.7747 4.98567 11.4546 4.5093 11.9749L3.10859 13.5049C1.88356 14.843 2.37905 16.9935 4.06609 17.6606C9.16324 19.6763 14.8365 19.6763 19.9337 17.6606C21.6207 16.9935 22.1162 14.843 20.8912 13.5049L19.4905 11.9749C19.0141 11.4546 18.7499 10.7747 18.7499 10.0692V8C18.7499 4.27208 15.7278 1.25 11.9999 1.25Z" fill="white"/>
<path d="M8.14966 20.0879C8.62346 21.7684 10.1679 23.0002 12 23.0002C13.8321 23.0002 15.3765 21.7684 15.8503 20.0879C13.3027 20.5299 10.6973 20.5299 8.14966 20.0879Z" fill="white"/>
</svg>
