<svg width="5" height="4" viewBox="0 0 5 4" fill="none" xmlns="http://www.w3.org/2000/svg">
<path d="M4.42807 1.07744L1.99534 3.51016C1.97416 3.53142 1.94898 3.54829 1.92126 3.5598C1.89354 3.57131 1.86381 3.57724 1.8338 3.57724C1.80378 3.57724 1.77406 3.57131 1.74634 3.5598C1.71861 3.54829 1.69344 3.53142 1.67225 3.51016L0.607931 2.44584C0.586716 2.42463 0.569888 2.39944 0.558406 2.37172C0.546925 2.34401 0.541016 2.3143 0.541016 2.2843C0.541016 2.25429 0.546925 2.22459 0.558406 2.19687C0.569888 2.16915 0.586716 2.14396 0.607931 2.12275C0.629146 2.10153 0.654331 2.0847 0.68205 2.07322C0.709768 2.06174 0.739477 2.05583 0.769479 2.05583C0.799482 2.05583 0.82919 2.06174 0.856909 2.07322C0.884627 2.0847 0.909813 2.10153 0.931027 2.12275L1.83399 3.02571L4.10535 0.754721C4.1482 0.711875 4.20631 0.687805 4.2669 0.687805C4.32749 0.687805 4.38561 0.711875 4.42845 0.754721C4.4713 0.797566 4.49537 0.855676 4.49537 0.916269C4.49537 0.976861 4.4713 1.03497 4.42845 1.07782L4.42807 1.07744Z" fill="white"/>
</svg>