<svg width="47" height="56" viewBox="0 0 47 56" fill="none" xmlns="http://www.w3.org/2000/svg">
<g filter="url(#filter0_d_112_641)">
<path d="M15.8379 25.8463L19.2395 27.8102L12.3319 39.7746L10.3493 35.3529L15.8379 25.8463Z" fill="#CE4444"/>
<path d="M15.8379 25.8463L12.4363 23.8824L5.52867 35.8467L10.3493 35.3529L15.8379 25.8463Z" fill="#983535"/>
<path d="M20.6907 25.8463L17.2891 27.8102L24.1967 39.7746L26.1793 35.3529L20.6907 25.8463Z" fill="#983535"/>
<path d="M20.6907 25.8463L24.0923 23.8824L30.9999 35.8467L26.1793 35.3529L20.6907 25.8463Z" fill="#CE4444"/>
<circle cx="18.1598" cy="17.6084" r="12.2111" fill="url(#paint0_linear_112_641)" stroke="#765C00"/>
<circle cx="18.1599" cy="17.6084" r="9.14158" fill="#A88300"/>
<mask id="mask0_112_641" style="mask-type:alpha" maskUnits="userSpaceOnUse" x="9" y="9" width="19" height="19">
<circle cx="18.6477" cy="18.5843" r="9.16286" fill="#C28B37"/>
</mask>
<g mask="url(#mask0_112_641)">
<circle cx="18.1597" cy="17.6084" r="9.16286" fill="#C09525"/>
</g>
<path d="M18.2095 11.234L20.186 15.1871L24.1391 15.6812L21.4247 18.7251L22.1626 23.0933L18.2095 21.1168L14.2563 23.0933L15.0008 18.7251L12.2798 15.6812L16.2329 15.1871L18.2095 11.234Z" fill="url(#paint1_linear_112_641)"/>
<path d="M6.83627 10.509L8.12503 7.67268L6.83627 4.83634L9.67261 6.1251L12.5089 4.83634L11.2202 7.67268L12.5089 10.509L9.67261 9.22026L6.83627 10.509Z" fill="white"/>
</g>
<defs>
<filter id="filter0_d_112_641" x="0.933217" y="0.32082" width="45.5513" height="54.9382" filterUnits="userSpaceOnUse" color-interpolation-filters="sRGB">
<feFlood flood-opacity="0" result="BackgroundImageFix"/>
<feColorMatrix in="SourceAlpha" type="matrix" values="0 0 0 0 0 0 0 0 0 0 0 0 0 0 0 0 0 0 127 0" result="hardAlpha"/>
<feOffset dx="5.48449" dy="5.48449"/>
<feGaussianBlur stdDeviation="5"/>
<feComposite in2="hardAlpha" operator="out"/>
<feColorMatrix type="matrix" values="0 0 0 0 0 0 0 0 0 0 0 0 0 0 0 0 0 0 0.1 0"/>
<feBlend mode="normal" in2="BackgroundImageFix" result="effect1_dropShadow_112_641"/>
<feBlend mode="normal" in="SourceGraphic" in2="effect1_dropShadow_112_641" result="shape"/>
</filter>
<linearGradient id="paint0_linear_112_641" x1="18.1598" y1="5.89731" x2="18.1598" y2="29.3195" gradientUnits="userSpaceOnUse">
<stop stop-color="#FFC600"/>
<stop offset="1" stop-color="#FFDE69"/>
</linearGradient>
<linearGradient id="paint1_linear_112_641" x1="18.2095" y1="11.234" x2="18.2095" y2="23.0933" gradientUnits="userSpaceOnUse">
<stop stop-color="#FFFCDD"/>
<stop offset="1" stop-color="#FFE896"/>
</linearGradient>
</defs>
</svg>
