<svg width="" height="" viewBox="0 0 22 23" fill="none" xmlns="http://www.w3.org/2000/svg">
<path d="M16.9971 3.83719C14.8568 2.12494 13.7866 1.26882 12.5998 0.940489C11.5529 0.650878 10.4471 0.650878 9.40021 0.940489C8.21339 1.26882 7.14324 2.12494 5.00293 3.83719L3.85293 4.75719C2.52983 5.81567 1.86828 6.34491 1.39209 7.00181C0.970239 7.58376 0.656383 8.23678 0.465485 8.92974C0.25 9.71194 0.25 10.5591 0.25 12.2535V17.5833C0.25 20.4368 2.5632 22.75 5.41667 22.75C6.8434 22.75 8 21.5934 8 20.1667V16C8 14.3431 9.34315 13 11 13C12.6569 13 14 14.3431 14 16V20.1667C14 21.5934 15.1566 22.75 16.5833 22.75C19.4368 22.75 21.75 20.4368 21.75 17.5833V12.2535C21.75 10.5591 21.75 9.71194 21.5345 8.92974C21.3436 8.23678 21.0298 7.58376 20.6079 7.00181C20.1317 6.34491 19.4702 5.81567 18.1471 4.75719L16.9971 3.83719Z"/>
</svg>