<svg width="24" height="24" viewBox="0 0 24 24" fill="none" xmlns="http://www.w3.org/2000/svg">
<path fill-rule="evenodd" clip-rule="evenodd" d="M9 1.25C6.37665 1.25 4.25 3.37665 4.25 6C4.25 8.62335 6.37665 10.75 9 10.75C11.6234 10.75 13.75 8.62335 13.75 6C13.75 3.37665 11.6234 1.25 9 1.25ZM0.25 18.95C0.25 15.802 2.80198 13.25 5.95 13.25H12.05C15.198 13.25 17.75 15.802 17.75 18.95C17.75 21.0487 16.0487 22.75 13.95 22.75H4.05C1.95132 22.75 0.25 21.0487 0.25 18.95ZM20.75 7C20.75 6.58579 20.4142 6.25 20 6.25C19.5858 6.25 19.25 6.58579 19.25 7V9.25H17C16.5858 9.25 16.25 9.58579 16.25 10C16.25 10.4142 16.5858 10.75 17 10.75H19.25V13C19.25 13.4142 19.5858 13.75 20 13.75C20.4142 13.75 20.75 13.4142 20.75 13V10.75H23C23.4142 10.75 23.75 10.4142 23.75 10C23.75 9.58579 23.4142 9.25 23 9.25H20.75V7Z" fill="white"/>
</svg>
