<svg width="35" height="35" viewBox="0 0 35 35" fill="none" xmlns="http://www.w3.org/2000/svg">
<path fill-rule="evenodd" clip-rule="evenodd" d="M11.434 2.68587C12.2897 2.2499 13.4098 2.2499 15.65 2.2499H18.35C20.5902 2.2499 21.7103 2.2499 22.566 2.68587C23.3186 3.06937 23.9305 3.68129 24.314 4.43394C24.75 5.28958 24.75 6.40969 24.75 8.6499V17.3499C24.75 19.5901 24.75 20.7102 24.314 21.5659C23.9305 22.3185 23.3186 22.9304 22.566 23.3139C21.7103 23.7499 20.5902 23.7499 18.35 23.7499H15.65C13.4098 23.7499 12.2897 23.7499 11.434 23.3139C10.6814 22.9304 10.0695 22.3185 9.68597 21.5659C9.25 20.7102 9.25 19.5901 9.25 17.3499V13.75L17.1893 13.75L14.4697 16.4697C14.1768 16.7625 14.1768 17.2374 14.4697 17.5303C14.7626 17.8232 15.2374 17.8232 15.5303 17.5303L19.5303 13.5303C19.8232 13.2374 19.8232 12.7625 19.5303 12.4697L15.5303 8.46965C15.2374 8.17676 14.7626 8.17676 14.4697 8.46965C14.1768 8.76254 14.1768 9.23742 14.4697 9.53031L17.1893 12.25L9.25 12.25V8.6499C9.25 6.40969 9.25 5.28958 9.68597 4.43394C10.0695 3.68129 10.6814 3.06937 11.434 2.68587ZM9.25 12.25H4C3.58579 12.25 3.25 12.5858 3.25 13C3.25 13.4142 3.58579 13.75 4 13.75H9.25V12.25Z" fill="white"/>
</svg>
