<svg width="" height="" viewBox="0 0 24 24" fill="none" xmlns="http://www.w3.org/2000/svg">
<path fill-rule="evenodd" clip-rule="evenodd" d="M7.76089 1.9896C6.97721 1.42982 6.58537 1.14993 6.16572 1.0655C5.7958 0.991069 5.41238 1.0228 5.05974 1.15703C4.65968 1.30931 4.31918 1.64981 3.63819 2.3308L2.33069 3.6383C1.6497 4.31929 1.3092 4.65979 1.15692 5.05984C1.02269 5.41249 0.99096 5.79591 1.06539 6.16583C1.14982 6.58547 1.42971 6.97732 1.98949 7.761L2.65036 8.68623C2.94719 9.10178 3.0956 9.30956 3.17933 9.50126C3.27173 9.7128 3.29782 9.80601 3.32864 10.0348C3.35657 10.2421 3.32925 10.6081 3.27461 11.3401C3.25834 11.558 3.25007 11.778 3.25007 11.9999C3.25007 12.2219 3.25835 12.4421 3.27463 12.6601C3.32931 13.3922 3.35665 13.7582 3.32872 13.9655C3.29791 14.1943 3.27182 14.2875 3.17942 14.4991C3.09568 14.6908 2.94726 14.8986 2.65041 15.3142L1.98944 16.2395C1.42967 17.0232 1.14978 17.4151 1.06535 17.8347C0.990916 18.2046 1.02265 18.5881 1.15688 18.9407C1.30916 19.3407 1.64965 19.6812 2.33065 20.3622L3.63814 21.6697C4.31914 22.3507 4.65964 22.6912 5.05969 22.8435C5.41234 22.9777 5.79576 23.0095 6.16567 22.935C6.58532 22.8506 6.97716 22.5707 7.76085 22.0109L8.68664 21.3497C9.10218 21.0528 9.30995 20.9044 9.50164 20.8207C9.71318 20.7283 9.80638 20.7022 10.0351 20.6714C10.2425 20.6435 10.6084 20.6708 11.3404 20.7254C11.5582 20.7417 11.7782 20.7499 12.0001 20.7499C12.2219 20.7499 12.442 20.7417 12.6599 20.7254C13.3918 20.6708 13.7578 20.6434 13.9652 20.6714C14.1939 20.7022 14.2871 20.7283 14.4987 20.8207C14.6904 20.9044 14.8981 21.0528 15.3137 21.3496L16.2392 22.0107C17.0229 22.5705 17.4147 22.8504 17.8344 22.9348C18.2043 23.0093 18.5877 22.9775 18.9404 22.8433C19.3404 22.691 19.6809 22.3505 20.3619 21.6695L21.6694 20.362C22.3504 19.681 22.6909 19.3405 22.8432 18.9405C22.9774 18.5878 23.0091 18.2044 22.9347 17.8345C22.8503 17.4148 22.5704 17.023 22.0106 16.2393L21.3497 15.3141C21.0529 14.8985 20.9045 14.6907 20.8207 14.499C20.7283 14.2874 20.7022 14.1942 20.6714 13.9655C20.6435 13.7581 20.6708 13.3921 20.7255 12.6601C20.7418 12.4421 20.7501 12.2219 20.7501 11.9999C20.7501 11.7781 20.7418 11.558 20.7255 11.3402C20.6709 10.6082 20.6436 10.2422 20.6715 10.0349C20.7023 9.80609 20.7284 9.71289 20.8208 9.50135C20.9045 9.30965 21.053 9.10188 21.3498 8.68633L22.0106 7.76122C22.5703 6.97754 22.8502 6.58569 22.9347 6.16605C23.0091 5.79613 22.9774 5.41271 22.8431 5.06006C22.6909 4.66001 22.3504 4.31951 21.6694 3.63852L20.3619 2.33102C19.6809 1.65002 19.3404 1.30953 18.9403 1.15725C18.5877 1.02302 18.2043 0.991288 17.8343 1.06572C17.4147 1.15015 17.0229 1.43004 16.2392 1.98981L15.3145 2.6503C14.8989 2.94715 14.6911 3.09558 14.4994 3.17931C14.2878 3.27172 14.1946 3.2978 13.9658 3.32862C13.7585 3.35654 13.3925 3.3292 12.6604 3.27451C12.4423 3.25822 12.2221 3.24993 12.0001 3.24993C11.7781 3.24993 11.5579 3.25821 11.3399 3.2745C10.6078 3.32917 10.2418 3.35651 10.0345 3.32858C9.80569 3.29777 9.71248 3.27168 9.50093 3.17928C9.30922 3.09554 9.10143 2.94712 8.68584 2.65028L7.76089 1.9896ZM15.0001 12C15.0001 13.6569 13.6569 15 12.0001 15C10.3432 15 9.00009 13.6569 9.00009 12C9.00009 10.3431 10.3432 9 12.0001 9C13.6569 9 15.0001 10.3431 15.0001 12Z"/>
</svg>
